<svg width="68" height="69" viewBox="0 0 68 69" fill="none" xmlns="http://www.w3.org/2000/svg">
<rect y="0.984863" width="68" height="68" rx="16" fill="#D97706"/>
<g clip-path="url(#clip0_2_901)">
<g clip-path="url(#clip1_2_901)">
<path d="M47.224 50.4889C46.213 50.4889 45.391 49.6659 45.391 48.6559C45.391 47.6459 46.214 46.8229 47.224 46.8229C48.234 46.8229 49.057 47.6459 49.057 48.6559C49.057 49.6659 48.234 50.4889 47.224 50.4889ZM47.224 48.0449C47.062 48.0449 46.9065 48.1092 46.792 48.2238C46.6774 48.3384 46.613 48.4938 46.613 48.6559C46.613 48.8179 46.6774 48.9733 46.792 49.0879C46.9065 49.2025 47.062 49.2669 47.224 49.2669C47.386 49.2669 47.5415 49.2025 47.656 49.0879C47.7706 48.9733 47.835 48.8179 47.835 48.6559C47.835 48.4938 47.7706 48.3384 47.656 48.2238C47.5415 48.1092 47.386 48.0449 47.224 48.0449ZM21.969 18.7139L23.697 16.9859L24.561 17.8499L22.832 19.5779L21.969 18.7139ZM17 23.6819L18.728 21.9529L19.592 22.8169L17.864 24.5449L17 23.6819ZM17.219 17.8489L18.083 16.9849L19.811 18.7129L18.947 19.5769L17.219 17.8489Z" fill="white"/>
<mask id="mask0_2_901" style="mask-type:luminance" maskUnits="userSpaceOnUse" x="16" y="16" width="36" height="37">
<path d="M16 16.9849H52V52.9849H16V16.9849Z" fill="white"/>
</mask>
<g mask="url(#mask0_2_901)">
<path d="M44.4601 30.0929C45.8001 32.4039 46.5081 35.0449 46.5081 37.7309C46.5137 39.7349 46.1217 41.7202 45.3548 43.5716C44.5878 45.4231 43.4612 47.104 42.0401 48.5169C39.1591 51.3979 35.3281 52.9849 31.2541 52.9849C29.2501 52.9906 27.2648 52.5986 25.4134 51.8316C23.5619 51.0647 21.881 49.938 20.4681 48.5169C19.047 47.104 17.9203 45.4231 17.1534 43.5716C16.3864 41.7202 15.9944 39.7349 16.0001 37.7309C15.9944 35.7269 16.3864 33.7417 17.1534 31.8903C17.9203 30.0388 19.047 28.3579 20.4681 26.9449C23.3491 24.0639 27.1801 22.4769 31.2541 22.4769C33.9391 22.4769 36.5801 23.1849 38.8921 24.5249C39.1611 24.6809 39.2521 25.0249 39.0971 25.2939C38.9421 25.5629 38.5971 25.6539 38.3281 25.4989C36.1779 24.2558 33.7378 23.6018 31.2541 23.6029C23.4631 23.6029 17.1251 29.9409 17.1251 37.7319C17.1251 45.5229 23.4631 51.8609 31.2541 51.8609C39.0451 51.8609 45.3831 45.5229 45.3831 37.7319C45.384 35.2486 44.7301 32.8089 43.4871 30.6589C43.3311 30.3899 43.4231 30.0459 43.6921 29.8899C43.9611 29.7339 44.3051 29.8259 44.4611 30.0939L44.4601 30.0929ZM51.8361 24.1599L47.0631 28.9329C46.9935 29.003 46.9066 29.0534 46.8112 29.079C46.7159 29.1047 46.6154 29.1046 46.5201 29.0789L41.9321 27.8499L31.6531 38.1289C31.601 38.1815 31.539 38.2233 31.4707 38.2518C31.4024 38.2803 31.3291 38.295 31.2551 38.295C31.181 38.295 31.1077 38.2803 31.0394 38.2518C30.9711 38.2233 30.9091 38.1815 30.8571 38.1289C30.8046 38.0769 30.763 38.015 30.7346 37.9467C30.7061 37.8785 30.6915 37.8053 30.6915 37.7314C30.6915 37.6575 30.7061 37.5844 30.7346 37.5161C30.763 37.4479 30.8046 37.386 30.8571 37.3339L41.1361 27.0549L39.9071 22.4669C39.8551 22.2729 39.9101 22.0659 40.0531 21.9239L44.8261 17.1509C44.9681 17.0089 45.1751 16.9529 45.3691 17.0049C45.4646 17.0302 45.5518 17.0804 45.6217 17.1503C45.6916 17.2202 45.7418 17.3074 45.7671 17.4029L46.9961 21.9909L51.5841 23.2199C51.7781 23.2719 51.9301 23.4239 51.9821 23.6179C52.0341 23.8119 51.9791 24.0179 51.8361 24.1599ZM50.3521 24.0529L46.3911 22.9919C46.1971 22.9399 46.0451 22.7879 45.9931 22.5939L44.9321 18.6329L41.0771 22.4879L42.2221 26.7619L46.4971 27.9069L50.3521 24.0529ZM31.2551 29.8509C32.4136 29.848 33.5582 30.1028 34.6061 30.5969C34.8871 30.7289 35.2221 30.6089 35.3551 30.3279C35.4881 30.0469 35.3671 29.7119 35.0861 29.5799C33.8831 29.0139 32.5941 28.7259 31.2561 28.7259C26.2911 28.7259 22.2521 32.7649 22.2521 37.7299C22.2521 42.6949 26.2911 46.7339 31.2561 46.7339C36.2211 46.7339 40.2601 42.6949 40.2601 37.7299C40.2601 36.3919 39.9731 35.1029 39.4061 33.8999C39.2741 33.6189 38.9391 33.4979 38.6581 33.6299C38.3771 33.7619 38.2561 34.0969 38.3891 34.3789C38.8832 35.4268 39.138 36.5714 39.1351 37.7299C39.1322 39.8187 38.3011 41.821 36.8241 43.298C35.3472 44.775 33.3448 45.606 31.2561 45.6089C29.1673 45.606 27.1649 44.775 25.688 43.298C24.211 41.821 23.38 39.8187 23.3771 37.7299C23.38 35.6412 24.211 33.6388 25.688 32.1619C27.1649 30.6849 29.1673 29.8538 31.2561 29.8509H31.2551Z" fill="white"/>
</g>
</g>
</g>
<defs>
<clipPath id="clip0_2_901">
<rect width="44" height="44" fill="white" transform="translate(12 12.9849)"/>
</clipPath>
<clipPath id="clip1_2_901">
<rect width="44" height="44" fill="white" transform="translate(12 12.9849)"/>
</clipPath>
</defs>
</svg>
