<svg width="57" height="57" viewBox="0 0 57 57" fill="none" xmlns="http://www.w3.org/2000/svg">
<rect x="0.799805" y="0.5" width="56" height="56" rx="28" fill="#3172A0"/>
<g clip-path="url(#clip0_99_4765)">
<g clip-path="url(#clip1_99_4765)">
<path d="M38.7998 31.5C38.7998 35.37 35.6698 38.5 31.7998 38.5L32.8498 36.75" stroke="white" stroke-width="0.857143" stroke-linecap="round" stroke-linejoin="round"/>
<path d="M18.7998 25.5C18.7998 21.63 21.9298 18.5 25.7998 18.5L24.7498 20.25" stroke="white" stroke-width="0.857143" stroke-linecap="round" stroke-linejoin="round"/>
<path d="M30.5 20.95L34.48 23.25L38.42 20.96" stroke="white" stroke-width="0.857143" stroke-linecap="round" stroke-linejoin="round"/>
<path d="M34.48 27.32V23.24" stroke="white" stroke-width="0.857143" stroke-linecap="round" stroke-linejoin="round"/>
<path d="M33.5399 18.71L31.1399 20.04C30.5999 20.34 30.1499 21.0999 30.1499 21.7199V24.26C30.1499 24.88 30.5899 25.64 31.1399 25.94L33.5399 27.27C34.0499 27.56 34.8899 27.56 35.4099 27.27L37.8099 25.94C38.3499 25.64 38.7999 24.88 38.7999 24.26V21.7199C38.7999 21.0999 38.3599 20.34 37.8099 20.04L35.4099 18.71C34.8999 18.43 34.0599 18.43 33.5399 18.71Z" stroke="white" stroke-width="0.857143" stroke-linecap="round" stroke-linejoin="round"/>
<path d="M19.1499 31.95L23.1199 34.25L27.0699 31.96" stroke="white" stroke-width="0.857143" stroke-linecap="round" stroke-linejoin="round"/>
<path d="M23.1196 38.32V34.24" stroke="white" stroke-width="0.857143" stroke-linecap="round" stroke-linejoin="round"/>
<path d="M22.1898 29.71L19.7898 31.0399C19.2498 31.3399 18.7998 32.0999 18.7998 32.7199V35.26C18.7998 35.88 19.2398 36.64 19.7898 36.94L22.1898 38.27C22.6998 38.56 23.5398 38.56 24.0598 38.27L26.4598 36.94C26.9998 36.64 27.4498 35.88 27.4498 35.26V32.7199C27.4498 32.0999 27.0098 31.3399 26.4598 31.0399L24.0598 29.71C23.5398 29.43 22.6998 29.43 22.1898 29.71Z" stroke="white" stroke-width="0.857143" stroke-linecap="round" stroke-linejoin="round"/>
</g>
</g>
<defs>
<clipPath id="clip0_99_4765">
<rect width="24" height="24" fill="white" transform="translate(16.7998 16.5)"/>
</clipPath>
<clipPath id="clip1_99_4765">
<rect width="24" height="24" fill="white" transform="translate(16.7998 16.5)"/>
</clipPath>
</defs>
</svg>
