<svg width="68" height="69" viewBox="0 0 68 69" fill="none" xmlns="http://www.w3.org/2000/svg">
<rect y="0.984863" width="68" height="68" rx="16" fill="#448C74"/>
<g clip-path="url(#clip0_2_745)">
<g clip-path="url(#clip1_2_745)">
<path d="M46.224 50.2628C45.213 50.2628 44.391 49.4398 44.391 48.4298C44.391 47.4198 45.214 46.5968 46.224 46.5968C47.234 46.5968 48.057 47.4198 48.057 48.4298C48.057 49.4398 47.234 50.2628 46.224 50.2628ZM46.224 47.8188C46.062 47.8188 45.9065 47.8831 45.792 47.9977C45.6774 48.1123 45.613 48.2677 45.613 48.4298C45.613 48.5918 45.6774 48.7472 45.792 48.8618C45.9065 48.9764 46.062 49.0408 46.224 49.0408C46.386 49.0408 46.5415 48.9764 46.656 48.8618C46.7706 48.7472 46.835 48.5918 46.835 48.4298C46.835 48.2677 46.7706 48.1123 46.656 47.9977C46.5415 47.8831 46.386 47.8188 46.224 47.8188ZM22.969 19.4888L24.697 17.7608L25.561 18.6248L23.832 20.3528L22.969 19.4888ZM18 24.4568L19.728 22.7278L20.592 23.5918L18.864 25.3208L18 24.4568ZM18.211 18.6238L19.075 17.7598L20.803 19.4878L19.939 20.3518L18.211 18.6238ZM31.764 45.7288C31.7103 45.7288 31.6569 45.72 31.606 45.7028C29.653 45.0808 27.878 44.0008 26.428 42.5508C24.9785 41.1016 23.8976 39.3259 23.276 37.3728C23.251 37.2998 23.243 37.2228 23.254 37.1468C23.265 37.0708 23.293 36.9978 23.338 36.9358L30.572 26.6138C35.194 20.6158 42.644 17.4058 50.518 18.0118C50.634 18.0208 50.743 18.0708 50.825 18.1528C50.907 18.2348 50.957 18.3438 50.966 18.4598C51.571 26.3328 48.362 33.7838 42.382 38.3928L42.364 38.4058L32.042 45.6388C31.9607 45.6971 31.8641 45.7286 31.764 45.7288ZM24.279 37.2898C24.8626 39.011 25.8347 40.5748 27.1198 41.8599C28.405 43.1451 29.9688 44.1171 31.69 44.7008L41.798 37.6168C47.406 33.2908 50.462 26.3408 50.026 18.9548C42.631 18.5168 35.682 21.5778 31.357 27.1908L24.279 37.2898Z" fill="white"/>
<path d="M49.3422 28.3157C49.3114 28.3155 49.2806 28.3128 49.2502 28.3077C47.1272 27.9027 45.1762 26.8677 43.6512 25.3357C42.1202 23.8107 41.0842 21.8597 40.6792 19.7377C40.6552 19.6107 40.6822 19.4797 40.7552 19.3727C40.8278 19.266 40.9396 19.1924 41.0662 19.1677C41.129 19.1553 41.1937 19.1557 41.2564 19.1688C41.3191 19.1818 41.3785 19.2073 41.4312 19.2437C41.5382 19.3167 41.6112 19.4277 41.6352 19.5547C42.003 21.4859 42.9455 23.2611 44.3392 24.6477C45.7262 26.0407 47.5012 26.9827 49.4322 27.3507C49.5512 27.3737 49.6572 27.4397 49.7292 27.5367C49.801 27.6336 49.8344 27.7537 49.8232 27.8738C49.8119 27.9939 49.7567 28.1057 49.6682 28.1877C49.5792 28.2697 49.4622 28.3147 49.3412 28.3147L49.3422 28.3157ZM38.2302 34.5697C37.3491 34.5687 36.4955 34.2624 35.8148 33.7029C35.1341 33.1434 34.6684 32.3653 34.497 31.501C34.3255 30.6367 34.459 29.7397 34.8745 28.9627C35.2901 28.1858 35.9621 27.5768 36.7762 27.2397C37.5905 26.9038 38.496 26.8605 39.3386 27.1171C40.1812 27.3736 40.9089 27.9142 41.3979 28.6468C41.8868 29.3794 42.1068 30.2588 42.0205 31.1354C41.9341 32.012 41.5467 32.8315 40.9242 33.4547C40.5705 33.8088 40.1504 34.0897 39.6879 34.281C39.2254 34.4723 38.7307 34.5704 38.2302 34.5697ZM38.2302 27.9217C37.5738 27.9224 36.938 28.1505 36.4308 28.5671C35.9236 28.9837 35.5763 29.5631 35.4481 30.2068C35.3199 30.8506 35.4186 31.5188 35.7274 32.098C36.0363 32.6772 36.5362 33.1315 37.1422 33.3837C37.7486 33.633 38.4227 33.6648 39.0499 33.4737C39.6772 33.2826 40.219 32.8804 40.5834 32.3352C40.9477 31.7901 41.1123 31.1356 41.049 30.483C40.9857 29.8303 40.6985 29.2197 40.2362 28.7547C39.9733 28.4902 39.6606 28.2805 39.3162 28.1377C38.9722 27.9947 38.6022 27.9217 38.2292 27.9227L38.2302 27.9217ZM35.5962 51.9927H35.5672C35.489 51.988 35.4131 51.9643 35.3462 51.9237C35.2792 51.8827 35.2222 51.8277 35.1822 51.7607L31.3542 45.4967C31.2872 45.3864 31.2663 45.2542 31.2962 45.1287C31.3262 45.0037 31.4052 44.8947 31.5152 44.8277C31.6254 44.7606 31.7577 44.7398 31.8832 44.7697C32.0092 44.7997 32.1172 44.8787 32.1842 44.9887L35.6472 50.6557L38.2692 47.3357C38.8473 46.5998 39.2734 45.7564 39.5227 44.8544C39.772 43.9525 39.8395 43.0099 39.7212 42.0817L39.4012 39.6197C39.3922 39.5557 39.3952 39.4907 39.4112 39.4277C39.4272 39.3647 39.4552 39.3067 39.4942 39.2547C39.5332 39.2027 39.5822 39.1597 39.6382 39.1277C39.6944 39.0956 39.7561 39.0746 39.8202 39.0657C39.8842 39.0567 39.9492 39.0617 40.0112 39.0787C40.0734 39.0959 40.1315 39.1253 40.1823 39.1651C40.2331 39.2049 40.2756 39.2544 40.3072 39.3107C40.3392 39.3677 40.3592 39.4287 40.3662 39.4937L40.6862 41.9557C40.8209 43.0129 40.744 44.0864 40.4601 45.1137C40.1761 46.141 39.6908 47.1016 39.0322 47.9397L35.9772 51.8087C35.9312 51.8657 35.8742 51.9117 35.8082 51.9437C35.7422 51.9757 35.6702 51.9917 35.5972 51.9917L35.5962 51.9927ZM23.7422 37.7007C23.6532 37.7007 23.5652 37.6767 23.4882 37.6297L17.2252 33.8017C17.1582 33.7607 17.1022 33.7047 17.0622 33.6377C17.0222 33.5707 16.9982 33.4947 16.9932 33.4167C16.9882 33.3387 17.0022 33.2607 17.0342 33.1887C17.0662 33.1172 17.1149 33.0544 17.1762 33.0057L21.0452 29.9507C21.8832 29.2921 22.8438 28.8067 23.8711 28.5228C24.8984 28.2388 25.9719 28.162 27.0292 28.2967L29.4912 28.6167C29.5556 28.6238 29.6178 28.6438 29.6742 28.6757C29.7306 28.7073 29.7803 28.7498 29.8202 28.8007C29.8602 28.8517 29.8892 28.9097 29.9062 28.9717C29.9232 29.0337 29.9282 29.0987 29.9192 29.1627C29.9108 29.2268 29.8897 29.2887 29.8572 29.3447C29.8246 29.4004 29.7814 29.4493 29.7302 29.4887C29.6787 29.5277 29.6199 29.5559 29.5572 29.5717C29.4942 29.5877 29.4292 29.5907 29.3652 29.5817L26.9032 29.2617C25.9748 29.1438 25.0323 29.2114 24.1302 29.4607C23.2282 29.7097 22.3852 30.1357 21.6492 30.7137L18.3272 33.3367L23.9942 36.7997C24.0852 36.8547 24.1542 36.9387 24.1932 37.0367C24.2314 37.1353 24.2367 37.2437 24.2082 37.3457C24.1792 37.4477 24.1182 37.5377 24.0332 37.6017C23.9485 37.6656 23.8453 37.7004 23.7392 37.7007H23.7422ZM23.4082 52.0297C23.3121 52.0294 23.2182 52.0009 23.1382 51.9477C23.0582 51.8947 22.9962 51.8187 22.9592 51.7297C22.9225 51.6408 22.9128 51.543 22.9312 51.4487C22.9496 51.3542 22.9959 51.2674 23.0642 51.1997L27.4092 46.8547C27.4545 46.8086 27.5081 46.7717 27.5672 46.7457C27.6262 46.7197 27.6902 46.7067 27.7552 46.7057C27.8199 46.7051 27.884 46.7174 27.9439 46.7418C28.0038 46.7661 28.0583 46.8021 28.1042 46.8477C28.1502 46.8927 28.1862 46.9477 28.2102 47.0077C28.2345 47.0676 28.2466 47.1318 28.2459 47.1966C28.2452 47.2613 28.2317 47.3252 28.2062 47.3847C28.1809 47.4441 28.1438 47.4979 28.0972 47.5427L23.7522 51.8877C23.6612 51.9787 23.5372 52.0297 23.4082 52.0297ZM17.4402 46.0647C17.3442 46.0641 17.2505 46.0354 17.1706 45.9821C17.0908 45.9288 17.0284 45.8531 16.9912 45.7647C16.9545 45.6758 16.9448 45.578 16.9632 45.4837C16.9816 45.3892 17.0279 45.3024 17.0962 45.2347L21.4412 40.8897C21.4862 40.8427 21.5402 40.8057 21.5992 40.7807C21.6582 40.7557 21.7222 40.7417 21.7872 40.7417C21.9173 40.7419 22.0421 40.7929 22.1352 40.8837C22.1812 40.9287 22.2172 40.9837 22.2412 41.0437C22.2655 41.1036 22.2776 41.1678 22.2769 41.2326C22.2762 41.2973 22.2627 41.3612 22.2372 41.4207C22.2116 41.48 22.1746 41.5337 22.1282 41.5787L17.7832 45.9237C17.6922 46.0147 17.5682 46.0657 17.4392 46.0657L17.4402 46.0647ZM17.7362 51.7357C17.6401 51.7354 17.5462 51.7069 17.4662 51.6537C17.3862 51.6007 17.3242 51.5247 17.2872 51.4357C17.2505 51.3468 17.2408 51.249 17.2592 51.1547C17.2776 51.0602 17.3239 50.9734 17.3922 50.9057L22.0682 46.2297C22.1602 46.1407 22.2832 46.0917 22.4102 46.0927C22.5376 46.0945 22.6592 46.1458 22.7494 46.2358C22.8395 46.3257 22.8911 46.4473 22.8932 46.5747C22.894 46.6379 22.8823 46.7006 22.8588 46.7593C22.8353 46.818 22.8004 46.8715 22.7562 46.9167L18.0802 51.5927C17.9888 51.6838 17.8652 51.7351 17.7362 51.7357Z" fill="white"/>
</g>
</g>
<defs>
<clipPath id="clip0_2_745">
<rect width="44" height="44" fill="white" transform="translate(12 12.9849)"/>
</clipPath>
<clipPath id="clip1_2_745">
<rect width="44" height="44" fill="white" transform="translate(12 12.9849)"/>
</clipPath>
</defs>
</svg>
