<svg width="68" height="69" viewBox="0 0 68 69" fill="none" xmlns="http://www.w3.org/2000/svg">
<rect y="0.984863" width="68" height="68" rx="16" fill="#3F7FCA"/>
<g clip-path="url(#clip0_2_1131)">
<g clip-path="url(#clip1_2_1131)">
<path d="M48.813 21.4356L48.641 18.9976L49.86 18.9116L50.032 21.3496L48.813 21.4356ZM52.078 24.2696L51.992 23.0506L54.43 22.8786L54.516 24.0976L52.078 24.2696ZM34.563 49.9846C34.41 49.9846 34.266 49.9126 34.174 49.7896L18.096 28.2026C18.0419 28.1307 18.0091 28.0451 18.0013 27.9554C17.9935 27.8658 18.0111 27.7758 18.052 27.6956C18.135 27.5316 18.302 27.4286 18.485 27.4286H50.492C50.675 27.4286 50.842 27.5316 50.925 27.6956C50.9659 27.7755 50.9835 27.8653 50.9759 27.9548C50.9683 28.0442 50.9358 28.1297 50.882 28.2016L34.953 49.7876C34.862 49.9106 34.716 49.9846 34.563 49.9846ZM19.451 28.3986L34.561 48.6856L49.532 28.3986H19.451Z" fill="white"/>
<path d="M34.5269 49.9847C34.3179 49.9847 34.1319 49.8507 34.0659 49.6517L26.9619 28.0647C26.9129 27.9167 26.9389 27.7547 27.0299 27.6287C27.1209 27.5027 27.2669 27.4277 27.4229 27.4277H41.5659C41.7209 27.4277 41.8669 27.5017 41.9579 27.6277C42.0489 27.7537 42.0749 27.9147 42.0269 28.0627L34.9889 49.6487C34.9239 49.8477 34.7379 49.9827 34.5289 49.9837L34.5269 49.9847ZM28.0929 28.3987L34.5249 47.9427L40.8969 28.3987H28.0929Z" fill="white"/>
<path d="M50.4921 28.3989H18.4851C18.2931 28.3989 18.1201 28.2859 18.0421 28.1109C17.9641 27.9359 17.9961 27.7319 18.1251 27.5889L24.8241 20.1449C24.9161 20.0429 25.0471 19.9839 25.1851 19.9839H43.7941C43.9311 19.9839 44.0631 20.0419 44.1551 20.1449L50.8541 27.5889C50.9821 27.7309 51.0141 27.9359 50.9371 28.1109C50.8601 28.2859 50.6851 28.3989 50.4941 28.3989H50.4921ZM19.5741 27.4289H49.4041L43.5771 20.9549H25.4001L19.5741 27.4289Z" fill="white"/>
<path d="M34.8571 28.3986C34.7531 28.3986 34.6491 28.3656 34.5611 28.2976L24.8841 20.8536C24.6721 20.6906 24.6321 20.3856 24.7951 20.1736C24.9581 19.9616 25.2631 19.9216 25.4751 20.0846L34.8441 27.2916L43.4781 20.0966C43.6841 19.9246 43.9901 19.9526 44.1611 20.1586C44.3321 20.3646 44.3051 20.6706 44.0991 20.8416L35.1671 28.2856C35.0771 28.3606 34.9671 28.3986 34.8571 28.3986Z" fill="white"/>
</g>
</g>
<defs>
<clipPath id="clip0_2_1131">
<rect width="44" height="44" fill="white" transform="translate(12 12.9849)"/>
</clipPath>
<clipPath id="clip1_2_1131">
<rect width="44" height="44" fill="white" transform="translate(12 12.9849)"/>
</clipPath>
</defs>
</svg>
