<svg width="200" height="211" viewBox="0 0 200 211" fill="none" xmlns="http://www.w3.org/2000/svg">
<path d="M198.804 194.488C189.279 189.596 179.529 185.52 169.407 182.07L169.384 182.049C169.227 181.994 169.07 181.939 168.912 181.884C166.669 181.139 165.906 184.546 167.669 185.615C174.053 189.473 182.761 191.837 189.146 195.695C156.603 195.912 119.781 196.591 91.2661 179.049C62.5222 161.368 48.1095 130.695 56.9341 98.8912C84.554 98.7249 112.556 84.0178 129.508 62.6672C136.396 53.9726 146.193 35.145 129.773 30.2719C114.292 25.6626 93.711 41.8877 83.1972 51.3149C70.111 63.0392 59.6301 78.4332 54.204 95.0089C52.1222 94.9844 50.0777 94.8685 48.0704 94.661C30.1804 92.8029 11.2198 83.634 5.4491 65.1076C-1.88441 41.5701 14.4995 19.0185 27.9203 1.56658C28.6412 0.62596 27.2863 -0.561471 26.542 0.358668C13.4589 16.41 -0.221008 34.5244 0.896691 56.5661C1.82188 74.6943 14.2211 87.9403 30.4122 94.206C37.7077 97.0205 45.3455 98.5005 53.0335 98.8451C47.868 117.532 49.2962 137.487 60.773 155.283C87.7616 197.081 139.616 201.147 184.786 201.155L174.332 206.827C172.119 208.033 174.345 211.287 176.537 210.105C182.06 207.125 187.582 204.122 193.084 201.144C193.346 201.147 195.161 199.887 195.423 199.868C197.08 198.548 193.084 201.144 195.528 199.81C196.688 199.192 197.846 198.552 199.006 197.935C200.397 197.167 200.007 195.087 198.804 194.488ZM60.8214 88.0429C67.6895 72.6482 78.8539 59.1568 92.1208 49.039C98.8476 43.9067 106.334 39.2955 114.188 36.1441C117.295 34.8949 120.798 33.6611 124.168 33.6352C134.365 33.5513 136.354 42.9913 132.638 51.0312C120.47 77.4224 86.864 93.9839 58.0984 94.9668C58.8972 92.6668 59.7831 90.3605 60.8214 88.0429Z" fill="#ED9E2F"/>
</svg>
