<svg width="36" height="37" viewBox="0 0 36 37" fill="none" xmlns="http://www.w3.org/2000/svg">
<path d="M18 0.492188C15.5521 0.492188 13.2344 0.973957 11.0469 1.9375C8.85938 2.875 6.94531 4.16406 5.30469 5.80469C3.66406 7.44531 2.375 9.35938 1.4375 11.5469C0.473958 13.7344 -0.0078125 16.0521 -0.0078125 18.5C-0.0078125 20.9479 0.473958 23.2656 1.4375 25.4531C2.375 27.6406 3.66406 29.5547 5.30469 31.1953C6.94531 32.8359 8.85938 34.125 11.0469 35.0625C13.2344 36.026 15.5521 36.5078 18 36.5078C20.4479 36.5078 22.7656 36.026 24.9531 35.0625C27.1406 34.125 29.0547 32.8359 30.6953 31.1953C32.3359 29.5547 33.625 27.6406 34.5625 25.4531C35.526 23.2656 36.0078 20.9479 36.0078 18.5C36.0078 16.0521 35.526 13.7344 34.5625 11.5469C33.625 9.35938 32.3359 7.44531 30.6953 5.80469C29.0547 4.16406 27.1406 2.875 24.9531 1.9375C22.7656 0.973957 20.4479 0.492188 18 0.492188ZM25.6562 13.8516C26.3333 14.0078 26.9909 14.1771 27.6289 14.3594C28.2669 14.5417 28.8333 14.75 29.3281 14.9844C30.0833 15.2448 30.7148 15.5378 31.2227 15.8633C31.7305 16.1888 32.1536 16.5078 32.4922 16.8203C32.8307 17.1589 33.0586 17.4583 33.1758 17.7188C33.293 17.9792 33.3516 18.2396 33.3516 18.5C33.3516 18.7604 33.293 19.0208 33.1758 19.2812C33.0586 19.5417 32.8307 19.8411 32.4922 20.1797C32.1536 20.4922 31.7305 20.8112 31.2227 21.1367C30.7148 21.4622 30.0833 21.7552 29.3281 22.0156C28.8333 22.25 28.2669 22.4583 27.6289 22.6406C26.9909 22.8229 26.3333 22.9922 25.6562 23.1484C25.7344 22.4193 25.8125 21.6706 25.8906 20.9023C25.9688 20.1341 26.0078 19.3333 26.0078 18.5C26.0078 17.6667 25.9688 16.8659 25.8906 16.0977C25.8125 15.3294 25.7344 14.5807 25.6562 13.8516ZM32.6484 13.8516C32.3359 13.5911 31.9714 13.3698 31.5547 13.1875C31.138 13.0052 30.6693 12.8359 30.1484 12.6797C29.4193 12.4193 28.638 12.1719 27.8047 11.9375C26.9714 11.7031 26.0859 11.5078 25.1484 11.3516C24.9922 10.4141 24.7969 9.52865 24.5625 8.69531C24.3281 7.86198 24.0807 7.08073 23.8203 6.35156C23.6641 5.9349 23.4753 5.51823 23.2539 5.10156C23.0326 4.6849 22.8307 4.26823 22.6484 3.85156C23.8724 4.21614 25.0052 4.71094 26.0469 5.33594C27.1146 5.98698 28.0716 6.73568 28.918 7.58203C29.7643 8.42838 30.513 9.38542 31.1641 10.4531C31.7891 11.4948 32.2839 12.6276 32.6484 13.8516ZM23.3516 18.5C23.3516 19.4115 23.3125 20.2839 23.2344 21.1172C23.1562 21.9505 23.0781 22.7448 23 23.5C22.1667 23.5781 21.3333 23.6562 20.5 23.7344C19.6667 23.8125 18.8333 23.8516 18 23.8516C17.1667 23.8516 16.3138 23.832 15.4414 23.793C14.569 23.7539 13.7552 23.6562 13 23.5C12.9219 22.6667 12.8438 21.8333 12.7656 21C12.6875 20.1667 12.6484 19.3333 12.6484 18.5C12.6484 17.6667 12.668 16.8138 12.707 15.9414C12.7461 15.069 12.8438 14.2552 13 13.5C13.8333 13.4219 14.6667 13.3438 15.5 13.2656C16.3333 13.1875 17.1667 13.1484 18 13.1484C18.8333 13.1484 19.6862 13.1875 20.5586 13.2656C21.431 13.3438 22.2448 13.4219 23 13.5C23.1562 14.2552 23.2539 15.0495 23.293 15.8828C23.332 16.7161 23.3516 17.5885 23.3516 18.5ZM14.4844 7.17188C14.7448 6.41667 15.0378 5.78516 15.3633 5.27734C15.6888 4.76953 16.0078 4.34636 16.3203 4.00781C16.6589 3.66927 16.9583 3.44141 17.2188 3.32422C17.4792 3.20703 17.7396 3.14844 18 3.14844C18.2604 3.14844 18.5208 3.20703 18.7812 3.32422C19.0417 3.44141 19.3411 3.66927 19.6797 4.00781C19.9922 4.34636 20.3112 4.76953 20.6367 5.27734C20.9622 5.78516 21.2552 6.41667 21.5156 7.17188C21.75 7.66667 21.9583 8.23307 22.1406 8.87109C22.3229 9.50912 22.4922 10.1667 22.6484 10.8438C21.9193 10.7656 21.1706 10.6875 20.4023 10.6094C19.6341 10.5312 18.8333 10.4922 18 10.4922C17.1667 10.4922 16.3659 10.5052 15.5977 10.5312C14.8294 10.5573 14.0807 10.6615 13.3516 10.8438C13.5078 10.1667 13.6771 9.50912 13.8594 8.87109C14.0417 8.23307 14.25 7.66667 14.4844 7.17188ZM13.3516 3.85156C13.0911 4.16406 12.8698 4.52865 12.6875 4.94531C12.5052 5.36198 12.3359 5.83073 12.1797 6.35156C11.9193 7.08073 11.6719 7.86198 11.4375 8.69531C11.2031 9.52865 11.0078 10.4141 10.8516 11.3516C9.91406 11.5078 9.02865 11.7031 8.19531 11.9375C7.36198 12.1719 6.58073 12.4193 5.85156 12.6797C5.4349 12.8359 5.01823 13.0247 4.60156 13.2461C4.1849 13.4674 3.76823 13.6693 3.35156 13.8516C3.71615 12.6276 4.21094 11.4948 4.83594 10.4531C5.48698 9.38542 6.23568 8.42838 7.08203 7.58203C7.92839 6.73568 8.88542 5.98698 9.95312 5.33594C10.9948 4.71094 12.1276 4.21614 13.3516 3.85156ZM3.50781 16.8203C3.84635 16.5078 4.26953 16.1888 4.77734 15.8633C5.28516 15.5378 5.91667 15.2448 6.67188 14.9844C7.16667 14.75 7.73307 14.5417 8.37109 14.3594C9.00911 14.1771 9.66667 14.0078 10.3438 13.8516C10.2656 14.5807 10.1875 15.3294 10.1094 16.0977C10.0312 16.8659 9.99219 17.6667 9.99219 18.5C9.99219 19.3333 10.0052 20.1341 10.0312 20.9023C10.0573 21.6706 10.1615 22.4193 10.3438 23.1484C9.66667 22.9922 9.00911 22.8229 8.37109 22.6406C7.73307 22.4583 7.16667 22.25 6.67188 22.0156C5.91667 21.7552 5.28516 21.4622 4.77734 21.1367C4.26953 20.8112 3.84635 20.4922 3.50781 20.1797C3.16927 19.8411 2.94141 19.5417 2.82422 19.2812C2.70703 19.0208 2.64844 18.7604 2.64844 18.5C2.64844 18.2396 2.70703 17.9792 2.82422 17.7188C2.94141 17.4583 3.16927 17.1589 3.50781 16.8203ZM3.35156 23.1484C3.66406 23.4089 4.02865 23.6302 4.44531 23.8125C4.86198 23.9948 5.33073 24.1641 5.85156 24.3203C6.58073 24.5807 7.36198 24.8281 8.19531 25.0625C9.02865 25.2969 9.91406 25.4922 10.8516 25.6484C11.0078 26.5859 11.2031 27.4714 11.4375 28.3047C11.6719 29.138 11.9193 29.9193 12.1797 30.6484C12.3359 31.0651 12.5247 31.4818 12.7461 31.8984C12.9674 32.3151 13.1693 32.7318 13.3516 33.1484C12.1276 32.7839 10.9948 32.2891 9.95312 31.6641C8.88542 31.013 7.92839 30.2643 7.08203 29.418C6.23568 28.5716 5.48698 27.6146 4.83594 26.5469C4.21094 25.5052 3.71615 24.3724 3.35156 23.1484ZM21.5156 29.8281C21.2552 30.5833 20.9622 31.2148 20.6367 31.7227C20.3112 32.2305 19.9922 32.6536 19.6797 32.9922C19.3411 33.3307 19.0417 33.5586 18.7812 33.6758C18.5208 33.793 18.2604 33.8516 18 33.8516C17.7396 33.8516 17.4792 33.793 17.2188 33.6758C16.9583 33.5586 16.6589 33.3307 16.3203 32.9922C16.0078 32.6536 15.6888 32.2305 15.3633 31.7227C15.0378 31.2148 14.7448 30.5833 14.4844 29.8281C14.25 29.3333 14.0417 28.7669 13.8594 28.1289C13.6771 27.4909 13.5078 26.8333 13.3516 26.1562C14.0807 26.2344 14.8294 26.3125 15.5977 26.3906C16.3659 26.4688 17.1667 26.5078 18 26.5078C18.8333 26.5078 19.6341 26.4948 20.4023 26.4688C21.1706 26.4427 21.9193 26.3385 22.6484 26.1562C22.4922 26.8333 22.3229 27.4909 22.1406 28.1289C21.9583 28.7669 21.75 29.3333 21.5156 29.8281ZM22.6484 33.1484C22.9089 32.8359 23.1302 32.4714 23.3125 32.0547C23.4948 31.638 23.6641 31.1693 23.8203 30.6484C24.0807 29.9193 24.3281 29.138 24.5625 28.3047C24.7969 27.4714 24.9922 26.5859 25.1484 25.6484C26.0859 25.4922 26.9714 25.2969 27.8047 25.0625C28.638 24.8281 29.4193 24.5807 30.1484 24.3203C30.5651 24.1641 30.9818 23.9753 31.3984 23.7539C31.8151 23.5326 32.2318 23.3307 32.6484 23.1484C32.2839 24.3724 31.7891 25.5052 31.1641 26.5469C30.513 27.6146 29.7643 28.5716 28.918 29.418C28.0716 30.2643 27.1146 31.013 26.0469 31.6641C25.0052 32.2891 23.8724 32.7839 22.6484 33.1484Z" fill="#448C74"/>
</svg>
