<svg width="145" height="18" viewBox="0 0 145 18" fill="none" xmlns="http://www.w3.org/2000/svg">
<path fill-rule="evenodd" clip-rule="evenodd" d="M73.6097 17.1H83.4097V13.7H73.6097V0H69.9097V17H73.6097V17.1ZM103.11 0H106.81V17H103.11V0ZM122.51 12L113.61 1.4C113.01 0.6 111.91 0 110.81 0H108.31V17H112.01V5.4L121.21 16.4C121.51 16.7 121.91 17.2 122.41 17.2H126.11V0H122.41L122.51 12ZM131.51 9.8H142.51V6.8H131.51V3.1H144.41V0.1H131.51C129.91 0.1 127.81 1.7 127.81 3.2V17.1H144.41V13.7H131.51V9.8ZM45.9097 17.1H50.8097L64.6097 3.2V17.1H68.3097V0H65.2097C63.6097 0 61.9097 0.9 60.8097 1.9L45.9097 17.1ZM36.7097 17.1H40.5097L57.4097 0.1H53.6097L36.7097 17.1ZM27.7097 17.1H31.5097L48.4097 0.1H44.6097L27.7097 17.1ZM18.8097 17.1H22.6097L39.5097 0.1H35.7097L18.8097 17.1ZM9.80967 17.1H13.6097L30.5097 0.1H26.7097L9.80967 17.1ZM0.909668 17.1H4.70967L21.6097 0H17.8097L0.909668 17.1ZM88.5097 7.7V3.1H96.8097C97.0078 3.09591 97.2047 3.13192 97.3885 3.20586C97.5723 3.27979 97.7393 3.39013 97.8794 3.53024C98.0195 3.67035 98.1299 3.83734 98.2038 4.02118C98.2777 4.20501 98.3138 4.40189 98.3097 4.6V6.2C98.2995 6.59463 98.1383 6.97031 97.8591 7.24945C97.58 7.52859 97.2043 7.68988 96.8097 7.7H88.5097ZM84.8097 0H98.1097C100.21 0 101.81 1.6 101.81 3.6V7.1C101.81 9.1 100.11 10.7 98.1097 10.7H88.5097V17H84.8097V0Z" fill="#3F7FCA"/>
</svg>
