<svg width="114" height="18" viewBox="0 0 114 18" fill="none" xmlns="http://www.w3.org/2000/svg">
<path d="M42.9103 0.4V4.4H52.2103V4.5L42.6103 13.2V16.6H62.1103V12.6H52.4103L62.2103 3.9V0.5C62.0103 0.4 43.1103 0.4 42.9103 0.4ZM35.1103 0.4V10.7C35.1103 12.2 33.7103 13.1 31.4103 13.1C29.1103 13.1 27.7103 12.2 27.7103 10.7V0.4H21.7103V11C21.7103 13.3 22.3103 14.7 23.6103 15.6C25.1103 16.6 27.5103 17.1 31.3102 17.1C35.1102 17.1 37.5103 16.6 39.0103 15.6C40.3103 14.7 40.9103 13.3 40.9103 11V0.4H35.1103ZM77.1103 0.4V10.7C77.1103 12.2 75.7103 13.1 73.4103 13.1C71.1103 13.1 69.7103 12.2 69.7103 10.7V0.4H63.7103V11C63.7103 13.3 64.3102 14.7 65.6103 15.6C67.1103 16.6 69.5102 17.1 73.3102 17.1C77.1103 17.1 79.5102 16.6 81.0102 15.6C82.3102 14.7 82.9103 13.3 82.9103 11V0.4H77.1103ZM107.31 0.4V16.6H113.51V0.4H107.31ZM98.0102 0.4L91.2103 6V0.4H85.0102V16.6H91.2103V10.9V10.8L97.5102 16.6H105.91L96.7103 8.3V8.2L106.21 0.4H98.0102ZM0.310253 5.3C0.310253 7.1 1.01025 8.3 2.51025 9.1C3.91025 9.8 6.01025 10.3 9.51025 10.6L10.2103 10.7C11.7103 10.8 13.4103 10.9 13.4103 12.2C13.4103 13 12.5102 13.5 10.8102 13.5C10.0102 13.5 8.81025 13.3 7.81025 11.6H0.0102539C0.0102539 13.5 0.710253 14.8 2.31025 15.6C4.01025 16.6 6.81026 17.1 10.9103 17.1C19.9103 17.1 20.7103 13 20.7103 11.8C20.7103 8.9 18.0103 7.2 12.5103 6.5L11.6103 6.4C9.11025 6.1 7.11025 5.9 7.11025 5C7.11025 4.7 7.21026 4.4 7.41026 4.2C8.01026 3.6 9.21025 3.6 9.71025 3.6C10.2103 3.6 11.8103 3.7 12.9103 5.4H20.0103C19.9103 2 16.2102 0 9.81025 0C1.21025 0 0.310253 3.7 0.310253 5.3Z" fill="#003478"/>
</svg>
