<svg width="161" height="17" viewBox="0 0 161 17" fill="none" xmlns="http://www.w3.org/2000/svg">
<path fill-rule="evenodd" clip-rule="evenodd" d="M37.8099 0.6H34.1099L25.4099 15.7H28.8099L30.5099 12.6H35.8099L36.1099 15.7H39.6099L37.8099 0.6ZM31.9099 10L35.1099 4L35.4099 10H31.9099ZM51.9099 0.6H44.0099L40.8099 15.7H44.2099L45.5099 9.9H48.6099C50.1099 9.9 50.8099 10.7 50.7099 11.9L50.2099 15.7H53.7099C53.6099 15.5 53.6099 15.3 53.6099 15.1L54.0099 11.1C54.1099 10.2 53.6099 8.7 52.5099 8.5C54.2099 8.2 55.5099 7.2 55.9099 5.3C56.2099 4 55.9099 0.6 51.9099 0.6ZM52.5099 5.2C52.2099 6.7 51.2099 7.3 49.6099 7.3H46.0099L46.9099 3.3H50.7099C52.6099 3.2 52.7099 4.4 52.5099 5.2ZM10.1099 0C5.10993 0 3.30993 2.2 2.90992 3.9C2.20992 7.2 4.40993 8.3 6.70993 8.9L8.30993 9.3C9.80993 9.7 11.2099 10.5 10.9099 11.6C10.6099 13.2 8.60993 13.6 7.10993 13.6C5.00993 13.6 4.20993 12 4.30993 10.9H0.809927C0.509927 13 1.10993 16.2 6.70993 16.2C8.00993 16.2 13.3099 16.5 14.3099 11.2C14.8099 8.5 12.6099 7.2 10.6099 6.7L7.60993 5.9C7.00993 5.8 6.40993 5.4 6.60993 4.2C6.70993 3.1 8.10993 2.6 9.30993 2.6C12.7099 2.6 12.5099 4.7 12.5099 5.4H15.8099C16.2099 3.6 16.2099 0 10.1099 0ZM63.7099 13.7C61.0099 13.7 59.9099 10.9 60.5099 8.2C61.4099 3.9 64.4099 3.1 65.9099 3.1C69.2099 3.1 69.3099 5.1 69.3099 6H72.5099C72.9099 3.5 71.0099 0.299999 66.4099 0.299999C62.5099 0.299999 58.0099 2.8 56.9099 8.1C55.8099 13.3 59.2099 16.4 63.3099 16.4C68.4099 16.4 70.4099 14.3 71.8099 11H68.1099C67.4099 12.8 66.3099 13.7 63.7099 13.7ZM102.21 15.8H105.41L106.81 9.4H114.01L114.61 6.7H107.41L108.11 3.3H116.61L117.21 0.6H105.51L102.21 15.8ZM118.21 0.6L117.61 3.3H122.81L120.11 15.8H123.31L126.01 3.3H131.21L131.81 0.6H118.21ZM30.4099 0.6H16.8099L16.2099 3.3H21.4099L18.7099 15.8H21.9099L24.6099 3.3H29.8099L30.4099 0.6ZM131.41 15.8H146.61C148.91 15.8 150.91 13.9 151.71 12.5L154.01 8.7H135.51L131.41 15.8ZM145.21 0.6C142.91 0.6 140.91 2.5 140.11 3.9L137.81 7.7H156.31L160.41 0.6H145.21ZM99.1099 0.6H95.4099L86.7099 15.7H90.1099L91.8099 12.6H97.1099L97.4099 15.7H100.91L99.1099 0.6ZM93.2099 10L96.4099 4L96.7099 10H93.2099ZM83.5099 0.6H75.6099L72.4099 15.7H75.8099L77.1099 9.9H80.2099C81.7099 9.9 82.4099 10.7 82.3099 11.9L81.8099 15.7H85.3099C85.2099 15.4 85.2099 15.3 85.2099 15L85.6099 11C85.7099 10.1 85.2099 8.6 84.1099 8.4C85.8099 8.1 87.2099 7.1 87.5099 5.2C87.9099 4 87.6099 0.6 83.5099 0.6ZM84.2099 5.2C83.9099 6.7 82.9099 7.3 81.3099 7.3H77.7099L78.6099 3.3H82.4099C84.2099 3.2 84.3099 4.4 84.2099 5.2Z" fill="#434A57"/>
</svg>
