<svg width="24" height="29" viewBox="0 0 24 29" fill="none" xmlns="http://www.w3.org/2000/svg">
<path d="M5.16406 0.984375C4.7474 0.984375 4.33724 1.02995 3.93359 1.12109C3.52995 1.21224 3.15885 1.33594 2.82031 1.49219C2.50781 1.67448 2.19531 1.91537 1.88281 2.21484C1.57031 2.51432 1.33594 2.83333 1.17969 3.17188C0.841146 3.58854 0.613281 4.00521 0.496094 4.42188C0.378906 4.83854 0.320312 5.25521 0.320312 5.67188V23.4844C0.320312 23.901 0.372396 24.3112 0.476562 24.7148C0.580729 25.1185 0.75 25.4896 0.984375 25.8281C1.24479 26.1667 1.50521 26.4857 1.76562 26.7852C2.02604 27.0846 2.32552 27.3255 2.66406 27.5078C3.0026 27.6641 3.3737 27.7878 3.77734 27.8789C4.18099 27.9701 4.59115 28.0156 5.00781 28.0156C5.42448 28.0156 5.83464 27.944 6.23828 27.8008C6.64193 27.6576 7.01302 27.5078 7.35156 27.3516L21.1797 18.4844C21.4922 18.3281 21.7786 18.1003 22.0391 17.8008C22.2995 17.5013 22.5078 17.1823 22.6641 16.8438C22.8203 16.5052 22.944 16.1406 23.0352 15.75C23.1263 15.3594 23.1719 14.9948 23.1719 14.6562C23.1719 14.2396 23.1263 13.862 23.0352 13.5234C22.944 13.1849 22.8203 12.8464 22.6641 12.5078C22.5078 12.1693 22.2995 11.8698 22.0391 11.6094C21.7786 11.349 21.4922 11.0885 21.1797 10.8281L7.35156 1.84375C7.01302 1.58333 6.64844 1.40104 6.25781 1.29688C5.86719 1.19271 5.5026 1.08854 5.16406 0.984375ZM3.99219 3.83594C4.17448 3.75781 4.34375 3.6862 4.5 3.62109C4.65625 3.55599 4.82552 3.57552 5.00781 3.67969C5.16406 3.67969 5.32682 3.71224 5.49609 3.77734C5.66536 3.84245 5.82812 3.91406 5.98438 3.99219L19.8516 12.8203C20.0078 12.9245 20.1315 13.0482 20.2227 13.1914C20.3138 13.3346 20.4115 13.4974 20.5156 13.6797C20.5938 13.8359 20.6654 13.9987 20.7305 14.168C20.7956 14.3372 20.8281 14.5 20.8281 14.6562C20.8281 14.8385 20.7956 15.0078 20.7305 15.1641C20.6654 15.3203 20.5938 15.4896 20.5156 15.6719C20.4115 15.8281 20.3138 15.9648 20.2227 16.082C20.1315 16.1992 20.0078 16.3359 19.8516 16.4922L5.98438 25.3203C5.82812 25.4245 5.66536 25.5091 5.49609 25.5742C5.32682 25.6393 5.16406 25.6719 5.00781 25.6719C4.82552 25.6719 4.65625 25.6654 4.5 25.6523C4.34375 25.6393 4.17448 25.5938 3.99219 25.5156C3.83594 25.2552 3.67969 25.0599 3.52344 24.9297C3.36719 24.7995 3.25 24.6562 3.17188 24.5C3.09375 24.3438 3.01562 24.181 2.9375 24.0117C2.85938 23.8424 2.82031 23.6667 2.82031 23.4844V5.67188C2.82031 5.48958 2.85938 5.32031 2.9375 5.16406C3.01562 5.00781 3.09375 4.83854 3.17188 4.65625C3.25 4.42188 3.36719 4.24609 3.52344 4.12891C3.67969 4.01172 3.83594 3.91406 3.99219 3.83594Z" fill="#448C74"/>
</svg>
