<svg width="36" height="37" viewBox="0 0 36 37" fill="none" xmlns="http://www.w3.org/2000/svg">
<path d="M31.3203 0.492188H4.67969C3.42969 0.492188 2.33594 0.960938 1.39844 1.89844C0.460938 2.83594 -0.0078125 3.92969 -0.0078125 5.17969V31.8203C-0.0078125 31.9245 -0.0078125 32.0156 -0.0078125 32.0938C-0.0078125 32.1719 -0.0078125 32.25 -0.0078125 32.3281C-0.0078125 32.4062 -0.00130208 32.5169 0.0117188 32.6602C0.0247396 32.8034 0.0703125 32.9141 0.148438 32.9922C0.148438 32.9922 0.148438 33.0182 0.148438 33.0703C0.148438 33.1224 0.148438 33.1484 0.148438 33.1484C0.148438 33.2526 0.161458 33.3177 0.1875 33.3438C0.213542 33.3698 0.265625 33.4219 0.34375 33.5C0.34375 33.5 0.34375 33.5065 0.34375 33.5195C0.34375 33.5326 0.34375 33.5781 0.34375 33.6562C0.421875 33.8385 0.49349 33.9818 0.558594 34.0859C0.623698 34.1901 0.65625 34.3333 0.65625 34.5156C0.838542 34.75 1.04688 34.9844 1.28125 35.2188C1.51562 35.4531 1.75 35.6615 1.98438 35.8438C2.08854 35.9219 2.21224 35.9935 2.35547 36.0586C2.4987 36.1237 2.66146 36.1562 2.84375 36.1562C2.84375 36.1562 2.85026 36.1562 2.86328 36.1562C2.8763 36.1562 2.92188 36.1562 3 36.1562C3.07812 36.1562 3.13021 36.1628 3.15625 36.1758C3.18229 36.1888 3.2474 36.2474 3.35156 36.3516C3.35156 36.3516 3.3776 36.3516 3.42969 36.3516C3.48177 36.3516 3.50781 36.3516 3.50781 36.3516C3.58594 36.3516 3.67057 36.3776 3.76172 36.4297C3.85286 36.4818 3.98958 36.5078 4.17188 36.5078C4.25 36.5078 4.32812 36.5078 4.40625 36.5078C4.48438 36.5078 4.57552 36.5078 4.67969 36.5078H31.3203C31.4245 36.5078 31.5156 36.5078 31.5938 36.5078C31.6719 36.5078 31.75 36.5078 31.8281 36.5078C31.9062 36.5078 32.0169 36.5013 32.1602 36.4883C32.3034 36.4753 32.4141 36.4297 32.4922 36.3516C32.4922 36.3516 32.5182 36.3516 32.5703 36.3516C32.6224 36.3516 32.6484 36.3516 32.6484 36.3516C32.7526 36.3516 32.8177 36.3385 32.8438 36.3125C32.8698 36.2865 32.9219 36.2344 33 36.1562C33 36.1562 33.0065 36.1562 33.0195 36.1562C33.0326 36.1562 33.0781 36.1562 33.1562 36.1562C33.3385 36.0781 33.4818 36.0065 33.5859 35.9414C33.6901 35.8763 33.8333 35.8438 34.0156 35.8438C34.25 35.6615 34.4844 35.4531 34.7188 35.2188C34.9531 34.9844 35.1615 34.75 35.3438 34.5156C35.4219 34.4115 35.4935 34.2878 35.5586 34.1445C35.6237 34.0013 35.6562 33.8385 35.6562 33.6562C35.6562 33.6562 35.6562 33.6497 35.6562 33.6367C35.6562 33.6237 35.6562 33.5781 35.6562 33.5C35.6562 33.4219 35.6628 33.3698 35.6758 33.3438C35.6888 33.3177 35.7474 33.2526 35.8516 33.1484C35.8516 33.1484 35.8516 33.1224 35.8516 33.0703C35.8516 33.0182 35.8516 32.9922 35.8516 32.9922C35.8516 32.9141 35.8776 32.8294 35.9297 32.7383C35.9818 32.6471 36.0078 32.5104 36.0078 32.3281C36.0078 32.25 36.0078 32.1719 36.0078 32.0938C36.0078 32.0156 36.0078 31.9245 36.0078 31.8203V5.17969C36.0078 3.92969 35.5391 2.83594 34.6016 1.89844C33.6641 0.960938 32.5703 0.492188 31.3203 0.492188ZM33.3516 31.8203C33.3516 32.0026 33.3385 32.1458 33.3125 32.25C33.2865 32.3542 33.2344 32.4974 33.1562 32.6797C33.0781 32.9141 32.9284 33.1224 32.707 33.3047C32.4857 33.487 32.2448 33.6693 31.9844 33.8516C31.9062 33.9297 31.7891 33.9753 31.6328 33.9883C31.4766 34.0013 31.3203 34.0078 31.1641 34.0078H4.67969C4.4974 34.0078 4.35417 34.0013 4.25 33.9883C4.14583 33.9753 4.0026 33.9297 3.82031 33.8516C3.58594 33.6693 3.3776 33.487 3.19531 33.3047C3.01302 33.1224 2.83073 32.9141 2.64844 32.6797C2.57031 32.5755 2.52474 32.4518 2.51172 32.3086C2.4987 32.1654 2.49219 32.0026 2.49219 31.8203V28.1484L7.33594 23.3438C7.49219 23.1615 7.70052 23.0052 7.96094 22.875C8.22135 22.7448 8.50781 22.6797 8.82031 22.6797C9.08073 22.6797 9.35417 22.7253 9.64062 22.8164C9.92708 22.9076 10.1615 23.0833 10.3438 23.3438L12.1797 25.1797C12.4141 25.4141 12.668 25.6159 12.9414 25.7852C13.2148 25.9544 13.5078 26.0781 13.8203 26.1562C14.1589 26.2344 14.4974 26.3125 14.8359 26.3906C15.1745 26.4688 15.513 26.5078 15.8516 26.5078C16.1641 26.5078 16.4831 26.4622 16.8086 26.3711C17.1341 26.2799 17.4141 26.1562 17.6484 26C17.9089 25.8438 18.1628 25.668 18.4102 25.4727C18.6576 25.2773 18.9115 25.0104 19.1719 24.6719L24.8359 17.4844C24.9141 17.4062 25.0247 17.3021 25.168 17.1719C25.3112 17.0417 25.4219 16.9245 25.5 16.8203C25.5781 16.8203 25.6953 16.8203 25.8516 16.8203C26.0078 16.8203 26.1641 16.8203 26.3203 16.8203C26.5026 16.8203 26.6784 16.8268 26.8477 16.8398C27.0169 16.8529 27.1797 16.9115 27.3359 17.0156C27.4922 17.0938 27.6224 17.1784 27.7266 17.2695C27.8307 17.3607 27.9219 17.4974 28 17.6797L33.5078 24.8281V31.8203H33.3516ZM29.9922 16C29.7578 15.7396 29.5039 15.4922 29.2305 15.2578C28.957 15.0234 28.6641 14.8281 28.3516 14.6719C28.013 14.4896 27.6745 14.3594 27.3359 14.2812C26.9974 14.2031 26.6589 14.1641 26.3203 14.1641C26.0078 14.1641 25.6823 14.2031 25.3438 14.2812C25.0052 14.3594 24.6667 14.4896 24.3281 14.6719C23.9896 14.8281 23.6901 15.0234 23.4297 15.2578C23.1693 15.4922 22.9089 15.7396 22.6484 16L16.9844 23.1484C16.9062 23.2526 16.8216 23.3633 16.7305 23.4805C16.6393 23.5977 16.5026 23.6562 16.3203 23.6562C16.1641 23.7344 16.0273 23.7865 15.9102 23.8125C15.793 23.8385 15.6562 23.8516 15.5 23.8516C15.3438 23.8516 15.1875 23.8385 15.0312 23.8125C14.875 23.7865 14.7578 23.7344 14.6797 23.6562C14.4974 23.5781 14.3607 23.5 14.2695 23.4219C14.1784 23.3438 14.0938 23.2526 14.0156 23.1484L12.1797 21.3516C11.6589 21.013 11.1185 20.7331 10.5586 20.5117C9.9987 20.2904 9.41927 20.1797 8.82031 20.1797C8.2474 20.1797 7.68099 20.2969 7.12109 20.5312C6.5612 20.7656 6.07292 21.0911 5.65625 21.5078L2.64844 24.5156V5.17969C2.64844 4.58073 2.85677 4.09245 3.27344 3.71484C3.6901 3.33724 4.15885 3.14844 4.67969 3.14844H31.3203C31.9193 3.14844 32.4076 3.35677 32.7852 3.77344C33.1628 4.19011 33.3516 4.65885 33.3516 5.17969V20.6484L29.9922 16ZM11.6719 10.1797C11.6719 10.7526 11.4635 11.2279 11.0469 11.6055C10.6302 11.9831 10.1745 12.1719 9.67969 12.1719C9.08073 12.1719 8.56641 11.9831 8.13672 11.6055C7.70703 11.2279 7.49219 10.7526 7.49219 10.1797C7.49219 9.58073 7.70703 9.09245 8.13672 8.71484C8.56641 8.33724 9.08073 8.14844 9.67969 8.14844C10.2526 8.14844 10.7279 8.33724 11.1055 8.71484C11.4831 9.09245 11.6719 9.58073 11.6719 10.1797Z" fill="#448C74"/>
</svg>
