<svg width="34" height="34" viewBox="0 0 34 34" fill="none" xmlns="http://www.w3.org/2000/svg">
<path d="M32.8203 2.85156C32.6641 2.51302 32.4948 2.20703 32.3125 1.93359C32.1302 1.66016 31.9089 1.40625 31.6484 1.17188C31.4141 0.911457 31.1406 0.696613 30.8281 0.527344C30.5156 0.358074 30.2422 0.234375 30.0078 0.15625C29.8255 0.078125 29.6172 0.0325508 29.3828 0.0195312C29.1484 0.00651169 28.9141 0 28.6797 0C28.5755 0 28.4583 0 28.3281 0C28.1979 0 28.0938 0 28.0156 0L14.6562 2.14844C14.1615 2.2526 13.6732 2.45443 13.1914 2.75391C12.7096 3.05338 12.2604 3.41146 11.8438 3.82812C11.5052 4.32292 11.2253 4.83073 11.0039 5.35156C10.7826 5.8724 10.6719 6.41927 10.6719 6.99219V22.5C10.1771 22.0833 9.61068 21.7578 8.97266 21.5234C8.33464 21.2891 7.67708 21.1719 7 21.1719C5.25521 21.1719 3.76432 21.7904 2.52734 23.0273C1.29036 24.2643 0.671875 25.7552 0.671875 27.5C0.671875 29.2448 1.29036 30.7357 2.52734 31.9727C3.76432 33.2096 5.25521 33.8281 7 33.8281C8.74479 33.8281 10.2357 33.2096 11.4727 31.9727C12.7096 30.7357 13.3281 29.2448 13.3281 27.5V6.99219C13.3281 6.75781 13.3737 6.51693 13.4648 6.26953C13.556 6.02213 13.6797 5.82031 13.8359 5.66406C13.9922 5.50781 14.1875 5.35807 14.4219 5.21484C14.6562 5.07162 14.9036 5 15.1641 5L28.4844 2.85156C28.6667 2.85156 28.8424 2.85156 29.0117 2.85156C29.181 2.85156 29.3438 2.85156 29.5 2.85156C29.6562 2.85156 29.793 2.88412 29.9102 2.94922C30.0273 3.01432 30.1641 3.08594 30.3203 3.16406C30.4245 3.24219 30.5156 3.35287 30.5938 3.49609C30.6719 3.63932 30.75 3.75 30.8281 3.82812C30.9062 4.01042 30.9518 4.15365 30.9648 4.25781C30.9779 4.36198 30.9844 4.49219 30.9844 4.64844V19.1797C30.4896 18.763 29.9232 18.4375 29.2852 18.2031C28.6471 17.9688 28.0026 17.8516 27.3516 17.8516C25.5807 17.8516 24.0768 18.4635 22.8398 19.6875C21.6029 20.9115 20.9844 22.4089 20.9844 24.1797C20.9844 25.9245 21.6029 27.4154 22.8398 28.6523C24.0768 29.8893 25.5807 30.5078 27.3516 30.5078C29.0964 30.5078 30.5872 29.8893 31.8242 28.6523C33.0612 27.4154 33.6797 25.9245 33.6797 24.1797V4.84375C33.4974 4.50521 33.3542 4.16667 33.25 3.82812C33.1458 3.48958 33.0026 3.16406 32.8203 2.85156ZM7 31.1719C6.01042 31.1719 5.15104 30.8073 4.42188 30.0781C3.69271 29.349 3.32812 28.4896 3.32812 27.5C3.32812 26.5104 3.69271 25.651 4.42188 24.9219C5.15104 24.1927 6.01042 23.8281 7 23.8281C7.98958 23.8281 8.84896 24.1927 9.57812 24.9219C10.3073 25.651 10.6719 26.5104 10.6719 27.5C10.6719 28.4896 10.3073 29.349 9.57812 30.0781C8.84896 30.8073 7.98958 31.1719 7 31.1719ZM27 27.8516C26.0104 27.8516 25.151 27.487 24.4219 26.7578C23.6927 26.0286 23.3281 25.1693 23.3281 24.1797C23.3281 23.1641 23.6927 22.2982 24.4219 21.582C25.151 20.8659 26.0104 20.5078 27 20.5078C27.9896 20.5078 28.849 20.8659 29.5781 21.582C30.3073 22.2982 30.6719 23.1641 30.6719 24.1797C30.6719 25.1693 30.3073 26.0286 29.5781 26.7578C28.849 27.487 27.9896 27.8516 27 27.8516Z" fill="#448C74"/>
</svg>
