<svg width="132" height="41" viewBox="0 0 132 41" fill="none" xmlns="http://www.w3.org/2000/svg">
<path d="M69.5097 10.2C69.5097 11.7 68.3096 12.8 66.8096 12.8C65.3096 12.8 64.1096 11.6 64.1096 10.2C64.1096 8.7 65.2096 7.6 66.8096 7.6C68.3096 7.6 69.5097 8.8 69.5097 10.2ZM58.5097 15.5V16.1C58.5097 16.1 57.2097 14.5 54.5097 14.5C50.0097 14.5 46.5097 17.9 46.5097 22.5C46.5097 27.1 49.9097 30.5 54.5097 30.5C57.2097 30.5 58.5097 28.8 58.5097 28.8V29.5C58.5097 29.8 58.7096 30.1 59.1096 30.1H62.4097V14.9H59.1096C58.7096 14.9 58.5097 15.2 58.5097 15.5ZM58.5097 25.3C57.9097 26.2 56.7096 27 55.2096 27C52.6096 27 50.6096 25.4 50.6096 22.6C50.6096 19.8 52.6096 18.2 55.2096 18.2C56.6096 18.2 57.9097 19 58.5097 19.9V25.3ZM64.8096 14.9H68.7096V30.2H64.8096V14.9ZM123.71 14.5C121.01 14.5 119.71 16.1 119.71 16.1V7.5H115.81V30.1H119.11C119.265 30.0884 119.411 30.0215 119.521 29.9114C119.631 29.8013 119.698 29.6553 119.71 29.5V28.8C119.71 28.8 121.01 30.5 123.71 30.5C128.21 30.5 131.71 27.1 131.71 22.5C131.71 17.9 128.11 14.5 123.71 14.5ZM123.01 26.9C121.51 26.9 120.31 26.1 119.71 25.2V19.8C120.31 19 121.61 18.1 123.01 18.1C125.61 18.1 127.61 19.7 127.61 22.5C127.61 25.3 125.61 26.9 123.01 26.9ZM113.71 21.1V30.2H109.81V21.6C109.81 19.1 109.01 18.1 106.81 18.1C105.61 18.1 104.41 18.7 103.61 19.6V30.2H99.6096V14.9H102.71C102.865 14.9116 103.011 14.9785 103.121 15.0886C103.231 15.1987 103.298 15.3447 103.31 15.5V16.1C104.41 14.9 106.01 14.5 107.51 14.5C109.21 14.5 110.71 15 111.81 16C113.21 17.1 113.71 18.6 113.71 21.1ZM90.0097 14.5C87.3097 14.5 86.0097 16.1 86.0097 16.1V7.5H82.1096V30.1H85.4097C85.565 30.0884 85.7109 30.0215 85.8211 29.9114C85.9312 29.8013 85.9981 29.6553 86.0097 29.5V28.8C86.0097 28.8 87.3097 30.5 90.0097 30.5C94.5097 30.5 98.0096 27.1 98.0096 22.5C98.0096 17.9 94.5097 14.5 90.0097 14.5ZM89.4097 26.9C87.9097 26.9 86.7096 26.1 86.1096 25.2V19.8C86.7096 19 88.0097 18.1 89.4097 18.1C92.0097 18.1 94.0097 19.7 94.0097 22.5C94.0097 25.3 92.0097 26.9 89.4097 26.9ZM78.7096 14.5C79.9096 14.5 80.5097 14.7 80.5097 14.7V18.3C80.5097 18.3 77.2096 17.2 75.2096 19.5V30.2H71.3096V14.9H74.6096C74.765 14.9116 74.9109 14.9785 75.0211 15.0886C75.1312 15.1987 75.1981 15.3447 75.2096 15.5V16.1C75.9096 15.3 77.5097 14.5 78.7096 14.5ZM37.8096 28.8L37.2096 27.3C36.9096 26.6 36.5096 25.9 36.3096 25.2C33.5096 19.1 30.4096 12.9 27.2096 6.9L27.1096 6.7C26.8097 6.1 26.4096 5.4 26.1096 4.8C25.6096 4 25.2097 3.2 24.6096 2.5C23.3097 0.9 21.4096 0 19.4096 0C17.3096 0 15.5096 0.9 14.1096 2.4C13.5096 3.1 13.0096 3.9 12.6096 4.6C12.3096 5.2 12.0096 5.9 11.6096 6.5L11.5097 6.7C8.30965 12.8 5.30965 19 2.40965 25V25.1C2.10965 25.8 1.80965 26.4 1.50965 27.2C1.27515 27.6855 1.07467 28.1867 0.909648 28.7C0.409648 30.2 0.209648 31.6 0.409649 33.1C0.909648 36.1 2.90965 38.7 5.70965 39.8C6.76592 40.1921 7.88297 40.3952 9.00965 40.4C9.30965 40.4 9.70965 40.4 10.1096 40.3C11.5549 40.1069 12.9481 39.6312 14.2096 38.9C15.9096 38 17.5097 36.6 19.3097 34.7C21.1096 36.6 22.7096 38 24.4096 38.9C25.6712 39.6312 27.0644 40.1069 28.5097 40.3C28.8097 40.3 29.2097 40.4 29.6096 40.4C30.7097 40.4 31.9097 40.2 32.9097 39.8C35.8097 38.7 37.8096 36.1 38.2096 33.1C38.5096 31.7 38.3096 30.3 37.8096 28.8ZM19.3097 30.9C17.1096 28.1 15.6096 25.5 15.2096 23.4C15.0096 22.5 15.0096 21.7 15.1096 20.9C15.2097 20.3 15.4097 19.7 15.8097 19.2C16.6096 18.1 17.9096 17.4 19.4096 17.4C20.9096 17.4 22.3097 18 23.0097 19.2C23.3097 19.7 23.6096 20.3 23.7096 20.9C23.8229 21.7328 23.789 22.5789 23.6096 23.4C23.0096 25.5 21.5097 28.1 19.3097 30.9ZM35.7096 32.8C35.4096 34.9 34.0097 36.7 32.0097 37.5C31.0097 37.9 29.9096 38 28.9096 37.9C27.9096 37.8 26.8097 37.5 25.8097 36.8C24.3097 36 22.8097 34.7 21.1096 32.9C23.8097 29.6 25.4096 26.6 26.1096 23.9C26.3673 22.786 26.435 21.6365 26.3097 20.5C26.1096 19.5 25.8096 18.6 25.2096 17.7C23.9096 15.9 21.8096 14.8 19.4096 14.8C17.0096 14.8 14.9096 15.9 13.6096 17.7C13.0096 18.5 12.7097 19.4 12.5097 20.5C12.3097 21.6 12.4096 22.7 12.7096 23.9C13.3096 26.6 15.0096 29.6 17.7096 32.9C16.0096 34.8 14.5097 36 13.0097 36.8C11.9097 37.4 10.9096 37.7 9.90965 37.9C8.80965 38 7.70965 37.9 6.80965 37.5C4.80965 36.7 3.40965 34.9 3.10965 32.8C3.00965 31.8 3.10965 30.8 3.50965 29.6C3.60965 29.2 3.80965 28.8 4.00965 28.3C4.30965 27.7 4.60965 27 4.90965 26.3V26.2C7.70965 20.2 10.8096 14 13.9096 8L14.0097 7.8C14.3097 7.2 14.7097 6.5 15.0097 5.9C15.3097 5.3 15.7097 4.6 16.1096 4.1C17.0096 3.1 18.1096 2.6 19.4096 2.6C20.7096 2.6 21.8096 3.1 22.7096 4.1C23.2096 4.6 23.5097 5.2 23.8097 5.9C24.1096 6.5 24.5097 7.2 24.8097 7.8L24.9096 8C28.0096 14 31.0097 20.1 33.9097 26.3C34.2097 27 34.5096 27.7 34.8096 28.3C35.0096 28.8 35.2096 29.2 35.3096 29.6C35.7096 30.8 35.8096 31.8 35.7096 32.8Z" fill="#ED5050"/>
</svg>
