<svg width="87" height="43" viewBox="0 0 87 43" fill="none" xmlns="http://www.w3.org/2000/svg">
<path d="M46.8099 0.100169C46.5099 0.100169 46.3099 1.20017 45.7099 1.70017C45.3099 2.10017 44.8099 2.10017 44.5099 2.50017C44.4099 2.70017 44.4099 3.00017 44.3099 3.30017C44.1099 3.90017 43.3099 3.90017 43.3099 4.60017C43.3099 5.30017 43.9099 5.40017 44.5099 5.90017C44.9099 6.30017 45.0099 6.60017 45.5099 6.80017C46.0099 7.00017 46.6099 6.40017 47.2099 6.60017C47.7099 6.70017 48.2099 6.90017 48.3099 7.40017C48.4099 7.90017 48.3099 8.60017 47.7099 8.50017C47.5099 8.50017 46.6099 8.20017 45.5099 8.30017C44.2099 8.40017 42.7099 8.90017 42.5099 10.3002C42.6099 11.1002 43.6099 12.1002 44.6099 11.9002C45.3099 11.8002 45.0099 11.0002 45.3099 10.6002C45.8099 10.1002 48.5099 12.3002 51.1099 12.3002C52.2099 12.3002 53.0099 12.0002 53.8099 11.2002C53.9099 11.1002 54.0099 11.0002 54.1099 11.0002C54.2602 11.0252 54.3996 11.0949 54.5099 11.2002C56.6099 12.8002 58.1099 16.2002 65.6099 16.2002C66.7099 16.2002 67.9099 16.7002 68.9099 17.6002C69.8099 18.4002 70.3099 19.7002 70.8099 21.0002C71.6099 22.9002 72.9099 24.8002 75.0099 26.9002C75.1099 27.0002 76.8099 28.3002 76.9099 28.4002C76.9099 28.4002 77.0099 28.7002 77.0099 28.9002C77.0099 30.1002 76.8099 33.8002 79.5099 33.9002C80.2099 33.9002 80.0099 33.5002 80.0099 33.1002C80.0099 32.5002 79.9099 31.8002 80.2099 31.2002C80.7099 30.3002 79.2099 29.9002 79.3099 28.0002C79.3099 26.6002 78.1099 26.8002 77.5099 25.7002C77.1099 25.1002 76.8099 24.7002 76.9099 24.0002C77.0099 19.6002 76.0099 16.8002 75.4099 16.1002C75.0099 15.6002 74.6099 15.4002 75.0099 15.1002C77.3099 13.6002 77.8099 12.2002 77.8099 12.2002C79.0099 9.40017 80.1099 6.80017 81.6099 5.70017C81.9099 5.50017 82.7099 4.90017 83.1099 4.70017C84.5099 4.00017 85.2099 3.60017 85.6099 3.30017C86.2099 2.70017 86.7099 1.40017 86.1099 0.600169C85.3099 -0.399831 84.0099 0.400169 83.4099 0.700169C79.2099 3.20017 78.6099 7.50017 77.2099 10.0002C76.1099 12.0002 74.2099 13.5002 72.5099 13.6002C71.2099 13.7002 69.9099 13.4002 68.6099 12.9002C65.3099 11.5002 63.5099 9.60017 63.1099 9.30017C62.2099 8.60017 55.4099 1.90017 49.9099 1.70017C49.9099 1.70017 49.2099 0.300168 49.0099 0.300168C48.6099 0.200168 48.2099 1.10017 47.9099 1.20017C47.5099 1.10017 47.1099 0.000169024 46.8099 0.100169ZM22.4099 40.0002C21.9099 40.0002 21.4099 39.6002 21.4099 39.0002V21.8002H15.7099V40.8002C15.7099 41.7002 16.5099 42.5002 17.4099 42.5002H27.3099C28.2099 42.5002 29.0099 41.7002 29.0099 40.8002V21.8002H23.3099V39.0002C23.4099 39.5002 23.0099 40.0002 22.4099 40.0002ZM41.5099 21.8002H32.9099C31.9099 21.8002 31.1099 22.6002 31.1099 23.7002V42.5002H36.8099V25.2002C36.8099 24.7002 37.2099 24.3002 37.8099 24.3002C38.3099 24.3002 38.8099 24.7002 38.8099 25.2002V42.5002H44.5099V25.2002C44.5099 24.7002 44.9099 24.3002 45.5099 24.3002C46.0099 24.3002 46.5099 24.7002 46.5099 25.2002V42.5002H52.2099V23.7002C52.2099 22.7002 51.4099 21.8002 50.4099 21.8002H41.5099ZM8.20986 25.2002C8.20986 24.6002 7.70986 24.2002 7.20986 24.2002H6.20986V34.7002H7.20986C7.70986 34.7002 8.20986 34.3002 8.20986 33.7002V25.2002ZM12.0099 37.3002H6.30986V42.5002H0.609863V21.8002H12.1099C13.1099 21.8002 13.9099 22.6002 13.9099 23.7002V35.4002C13.8925 35.8985 13.6867 36.3718 13.3341 36.7244C12.9815 37.077 12.5082 37.2828 12.0099 37.3002ZM71.4099 37.8002C70.3099 37.8002 69.3099 38.8002 69.3099 40.0002C69.3099 41.2002 70.3099 42.2002 71.4099 42.2002C72.6099 42.2002 73.5099 41.2002 73.5099 40.0002C73.5099 38.8002 72.6099 37.8002 71.4099 37.8002ZM73.9099 40.0002C73.9099 41.4002 72.8099 42.5002 71.4099 42.5002C70.0099 42.5002 68.9099 41.4002 68.9099 40.0002C68.9099 38.6002 70.0099 37.5002 71.4099 37.5002C72.8099 37.5002 73.9099 38.6002 73.9099 40.0002Z" fill="#434A57"/>
</svg>
