<svg width="113" height="21" viewBox="0 0 113 21" fill="none" xmlns="http://www.w3.org/2000/svg">
<path d="M11.5099 7.80019C11.5099 10.3002 10.3099 12.1002 7.10986 12.1002H6.10986V4.00019H7.10986C10.1099 4.00019 11.5099 5.40019 11.5099 7.80019ZM8.30986 15.6002C13.9099 15.6002 17.4099 12.7002 17.4099 7.7002C17.4099 2.2002 13.6099 0.200195 7.40986 0.200195C5.00986 0.200195 2.10986 0.400195 0.109863 0.600195V20.2002H6.10986V15.5002H8.30986V15.6002ZM88.9099 7.80019C88.9099 10.3002 87.7099 12.1002 84.5099 12.1002H83.5099V4.00019H84.5099C87.5099 4.00019 88.9099 5.40019 88.9099 7.80019ZM85.6099 15.6002C91.2099 15.6002 94.7099 12.7002 94.7099 7.7002C94.7099 2.2002 90.9099 0.200195 84.7099 0.200195C82.3099 0.200195 79.4099 0.400195 77.4099 0.600195V20.2002H83.4099V15.5002H85.6099V15.6002ZM102.61 5.7002C102.61 4.6002 103.71 4.10019 105.41 4.10019C107.31 4.10019 109.41 4.50019 110.81 5.10019L110.31 0.800194C108.71 0.500194 107.31 0.200195 104.81 0.200195C99.9099 0.200195 96.6099 2.10019 96.6099 6.10019C96.6099 13.0002 106.01 11.6002 106.01 14.8002C106.01 16.0002 105.11 16.7002 102.91 16.7002C100.91 16.7002 97.9099 16.0002 96.1099 15.1002L96.8099 19.6002C98.6099 20.3002 101.11 20.6002 103.11 20.6002C108.11 20.6002 112.21 19.0002 112.21 14.0002C112.11 7.60019 102.61 8.8002 102.61 5.7002ZM72.9099 0.700195H66.9099V20.3002H72.9099V0.700195ZM48.6099 0.700195H42.6099V20.3002H48.6099V0.700195ZM59.0099 16.4002V0.700195H53.0099V20.3002H63.9099L64.8099 16.4002H59.0099ZM38.1099 0.700195H32.1099V8.50019H25.8099V0.700195H19.8099V20.3002H25.8099V12.6002H32.1099V20.3002H38.1099V0.700195Z" fill="#1978BE"/>
</svg>
